# xmcd
#
# Track frame offsets: 
#        150
#        24049
#        38361
#        58052
#        76910
#        94043
#        110083
#        127917
#        142753
#        157823
#        172680
#        189561
#        205898
#        223735
#        240735
#        262204
#        280729
#        295015
#        313573
#        333080
#
# Disc length: 4726 seconds
#
# Revision: 0
# Processed by: cddbd v1.5.2PL0 Copyright (c) Steve Scherf et al.
# Submitted via: ExactAudioCopy v1.1
#
DISCID=07127414
DTITLE=Various Artist - 1000 Klassiekers Radio 2 Vol. 04 - CD 5
DYEAR=2012
DGENRE=Pop
TTITLE0=Anne Clark - Our Darkness
TTITLE1=Joy Division - Love Will Tear Us Apart
TTITLE2=Duran Duran - The Reflex
TTITLE3=Culture Club - Karma Chameleon
TTITLE4=Bill Withers - Lovely Day
TTITLE5=Lio - Amoureux Solitaires
TTITLE6=Roxette - The Look
TTITLE7=Modern Talking - You're My Heart, You're My Soul
TTITLE8=Falco - Rock Me Amadeus
TTITLE9=Rick James - Super Freak
TTITLE10=OMC - How Bizarre
TTITLE11=Taylor Dayne - Tell It To My Heart
TTITLE12=Talk Talk - Such A Shame
TTITLE13=Cyndi Lauper - True Colors
TTITLE14=Spandau Ballet - Gold
TTITLE15=Simply Red - Stars
TTITLE16=Gorky - Lieve Kleine Piranha
TTITLE17=XTC - Making Plans For Nigel
TTITLE18=Deniece Williams - Let's Hear It For The Boy
TTITLE19=Whitney Houston - I'm Every Woman
EXTD=
EXTT0=
EXTT1=
EXTT2=
EXTT3=
EXTT4=
EXTT5=
EXTT6=
EXTT7=
EXTT8=
EXTT9=
EXTT10=
EXTT11=
EXTT12=
EXTT13=
EXTT14=
EXTT15=
EXTT16=
EXTT17=
EXTT18=
EXTT19=
PLAYORDER=
